<svg width="169" height="50" viewBox="0 0 169 50" fill="none" xmlns="http://www.w3.org/2000/svg">
<g clip-path="url(#clip0_2001_1053)">
<path d="M49.1205 44.9494V48.4836L48.6182 48.9919H46.594V44.4412H48.6182L49.1205 44.9494ZM48.3626 45.2021H47.3549V48.2368H48.3626V45.2021Z" fill="white"/>
<path d="M50.8686 45.2021V46.3361H52.1348V47.094H50.8686V48.2339H52.6371V48.9919H50.6188L50.1106 48.4836V44.9494L50.6188 44.4412H52.6371V45.1991H50.8686V45.2021Z" fill="white"/>
<path d="M56.1508 48.2339V48.9919H54.1325L53.6243 48.4836V44.4412H54.3822V48.2339H56.1508Z" fill="white"/>
<path d="M61.0509 44.9494V48.9919H60.293V47.094H59.2853V48.9919H58.5273V44.9494L59.0356 44.4412H60.5515L61.0539 44.9494H61.0509ZM60.293 45.2021H59.2853V46.3361H60.293V45.2021Z" fill="white"/>
<path d="M64.5675 48.2339V48.9919H62.5493L62.041 48.4836V44.4412H62.799V48.2339H64.5675Z" fill="white"/>
<path d="M68.0841 46.4683L67.8344 46.718L68.0841 46.9677V48.4836L67.5818 48.9919H65.5576V44.4412H67.5818L68.0841 44.9494V46.4653V46.4683ZM67.3262 45.2021H66.3185V46.3361H67.3262V45.2021ZM67.3262 47.094H66.3185V48.2339H67.3262V47.094Z" fill="white"/>
<path d="M71.6007 44.9494V48.9919H70.8428V47.094H69.8351V48.9919H69.0771V44.9494L69.5854 44.4412H71.1013L71.6037 44.9494H71.6007ZM70.8398 45.2021H69.8322V46.3361H70.8398V45.2021Z" fill="white"/>
<path d="M76.5011 44.9494V48.9919H75.7432V47.094H74.7355V48.9919H73.9775V44.9494L74.4858 44.4412H76.0017L76.5041 44.9494H76.5011ZM75.7432 45.2021H74.7355V46.3361H75.7432V45.2021Z" fill="white"/>
<path d="M80.0146 48.2339V48.9919H77.9963L77.488 48.4836V44.4412H78.246V48.2339H80.0146Z" fill="white"/>
<path d="M84.9179 44.9494V48.4836L84.4155 48.9919H82.8996L82.3914 48.4836V44.9494L82.8996 44.4412H84.4155L84.9179 44.9494ZM84.157 45.2021H83.1493V48.2368H84.157V45.2021Z" fill="white"/>
<path d="M87.6736 45.71V45.2018H86.6659V48.2366H87.6736V47.7283H88.4316V48.4863L87.9292 48.9945H86.4133L85.905 48.4863V44.9521L86.4133 44.4438H87.9292L88.4316 44.9521V45.71H87.6736Z" fill="white"/>
<path d="M91.9482 44.9494V48.9919H91.1902V47.094H90.1825V48.9919H89.4246V44.9494L89.9328 44.4412H91.4487L91.9511 44.9494H91.9482ZM91.1902 45.2021H90.1825V46.3361H91.1902V45.2021Z" fill="white"/>
<path d="M94.7039 45.71V45.2018H93.6962V46.1713L94.9624 46.5062L95.4648 47.0144V48.4863L94.9624 48.9945H93.4465L92.9382 48.4863V47.7283H93.6962V48.2366H94.7039V47.2671L93.4435 46.9322L92.9353 46.4298V44.9521L93.4435 44.4438H94.9595L95.4618 44.9521V45.71H94.7039Z" fill="white"/>
<path d="M98.9784 44.9494V48.4836L98.4761 48.9919H96.9602L96.4519 48.4836V44.9494L96.9602 44.4412H98.4761L98.9784 44.9494ZM98.2205 45.2021H97.2128V48.2368H98.2205V45.2021Z" fill="white"/>
<path d="M100.694 48.2339V48.9918L100.186 49.5001H99.936V48.2339H100.694Z" fill="white"/>
<path d="M104.804 45.71V45.2018H103.796V48.2366H104.804V47.7283H105.562V48.4863L105.06 48.9945H103.544L103.035 48.4863V44.9521L103.544 44.4438H105.06L105.562 44.9521V45.71H104.804Z" fill="white"/>
<path d="M109.079 44.9494V48.4836L108.576 48.9919H107.06L106.552 48.4836V44.9494L107.06 44.4412H108.576L109.079 44.9494ZM108.321 45.2021H107.313V48.2368H108.321V45.2021Z" fill="white"/>
<path d="M112.592 48.9919H112.005L110.824 46.3684V48.9919H110.066V44.4412H110.653L111.834 47.0588V44.4412H112.592V48.9919Z" fill="white"/>
<path d="M115.351 45.71V45.2018H114.343V46.1713L115.609 46.5062L116.112 47.0144V48.4863L115.609 48.9945H114.093L113.585 48.4863V47.7283H114.343V48.2366H115.351V47.2671L114.091 46.9322L113.582 46.4298V44.9521L114.091 44.4438H115.606L116.109 44.9521V45.71H115.351Z" fill="white"/>
<path d="M119.625 45.2018H118.741V48.9945H117.983V45.2018H117.099V44.4438H119.625V45.2018Z" fill="white"/>
<path d="M123.139 46.5916L122.742 46.9941L123.139 48.9919H122.381L122.005 47.094H121.371V48.9919H120.613V44.4412H122.637L123.139 44.9494V46.5916ZM122.381 45.2021H121.373V46.3361H122.381V45.2021Z" fill="white"/>
<path d="M126.656 44.4438V48.4863L126.153 48.9945H124.637L124.129 48.4863V44.4438H124.887V48.2366H125.895V44.4438H126.653H126.656Z" fill="white"/>
<path d="M129.288 46.6531V48.9945H128.53V46.6531L127.646 44.4438H128.436L128.912 45.619L129.379 44.4438H130.169L129.285 46.6531H129.288Z" fill="white"/>
<path d="M131.92 45.2021V46.3361H133.186V47.094H131.92V48.2339H133.689V48.9919H131.67L131.162 48.4836V44.9494L131.67 44.4412H133.689V45.1991H131.92V45.2021Z" fill="white"/>
<path d="M137.202 48.9919H136.615L135.434 46.3684V48.9919H134.676V44.4412H135.263L136.444 47.0588V44.4412H137.202V48.9919Z" fill="white"/>
<path d="M140.719 44.9494V48.4836L140.217 48.9919H138.192V44.4412H140.217L140.719 44.9494ZM139.961 45.2021H138.953V48.2368H139.961V45.2021Z" fill="white"/>
<path d="M144.236 44.9494V48.4836L143.733 48.9919H142.217L141.709 48.4836V44.9494L142.217 44.4412H143.733L144.236 44.9494ZM143.478 45.2021H142.47V48.2368H143.478V45.2021Z" fill="white"/>
<path d="M148.378 45.71V45.2018H147.37V48.2366H148.378V47.7283H149.136V48.4863L148.634 48.9945H147.118L146.609 48.4863V44.9521L147.118 44.4438H148.634L149.136 44.9521V45.71H148.378Z" fill="white"/>
<path d="M152.65 44.9494V48.4836L152.147 48.9919H150.631L150.123 48.4836V44.9494L150.631 44.4412H152.147L152.65 44.9494ZM151.892 45.2021H150.884V48.2368H151.892V45.2021Z" fill="white"/>
<path d="M156.166 48.9919H155.579L154.398 46.3684V48.9919H153.64V44.4412H154.227L155.408 47.0588V44.4412H156.166V48.9919Z" fill="white"/>
<path d="M159.55 45.2018H158.666V48.9945H157.908V45.2018H157.024V44.4438H159.55V45.2018Z" fill="white"/>
<path d="M160.408 48.9919V44.4412H161.166V48.9919H160.408Z" fill="white"/>
<path d="M163.925 45.71V45.2018H162.917V48.2366H163.925V47.0967L163.167 46.3387H164.683V48.4892L164.18 48.9975H162.664L162.156 48.4892V44.955L162.664 44.4468H164.18L164.683 44.955V45.713H163.925V45.71Z" fill="white"/>
<path d="M168.196 44.9494V48.4836L167.694 48.9919H166.178L165.67 48.4836V44.9494L166.178 44.4412H167.694L168.196 44.9494ZM167.438 45.2021H166.431V48.2368H167.438V45.2021Z" fill="white"/>
<path d="M46.5029 0.5H55.6601C56.2888 0.5 56.8411 0.726213 57.2936 1.17864C57.7196 1.63106 57.9487 2.15987 57.9487 2.78857V10.9117C57.9487 11.3376 57.8224 11.7431 57.5962 12.1191C57.37 12.4981 57.0439 12.7742 56.6414 12.9505L57.9751 18.1064H53.9768L52.6929 13.1767H50.3779V18.1064H46.5059V0.5H46.5029ZM54.0737 9.6572V4.02245H50.3779V9.65427H54.0737V9.6572Z" fill="white"/>
<path d="M61.4181 17.4278C60.9657 16.9753 60.7395 16.4465 60.7395 15.8178V0.5H64.6145V14.5839H67.9577V0.5H71.8298V15.8149C71.8298 16.4436 71.6036 16.9724 71.1747 17.4248C70.7222 17.8772 70.167 18.1035 69.5412 18.1035H63.0251C62.3994 18.1035 61.8706 17.8772 61.4152 17.4248L61.4181 17.4278Z" fill="white"/>
<path d="M74.5974 0.5H78.6957L81.9919 8.94919L85.2882 0.5H89.3864V18.1064H85.5144V8.42332L82.8733 14.5839H81.1106L78.4695 8.42332V18.1064H74.5945V0.5H74.5974Z" fill="white"/>
<path d="M92.1509 0.5H96.0259V18.1064H92.1509V0.5Z" fill="white"/>
<path d="M47.1845 37.2844C46.7321 36.832 46.5059 36.3032 46.5059 35.6745V22.6482C46.5059 22.0195 46.7321 21.4936 47.1845 21.0383C47.6369 20.5858 48.1657 20.3596 48.7944 20.3596H55.1343C55.7629 20.3596 56.2918 20.5858 56.7442 21.0383C57.1966 21.4907 57.4228 22.0195 57.4228 22.6482V26.1677L53.5508 27.0491V23.8821H50.3838V34.4436H53.5508V31.2766L57.4228 30.3982V35.6804C57.4228 36.3091 57.1966 36.8379 56.7442 37.2903C56.2918 37.7427 55.7629 37.969 55.1343 37.969H48.7944C48.1657 37.969 47.6399 37.7398 47.1845 37.2874V37.2844Z" fill="white"/>
<path d="M60.8659 37.2844C60.4135 36.832 60.1873 36.3032 60.1873 35.6745V22.6482C60.1873 22.0195 60.4135 21.4936 60.8659 21.0383C61.3183 20.5858 61.8471 20.3596 62.4758 20.3596H69.3415C69.9702 20.3596 70.5225 20.5858 70.975 21.0383C71.4009 21.4907 71.6301 22.0195 71.6301 22.6482V35.6745C71.6301 36.3032 71.4039 36.832 70.975 37.2844C70.5225 37.7369 69.9702 37.9631 69.3415 37.9631H62.4758C61.8442 37.9631 61.3183 37.7369 60.8659 37.2844ZM67.7551 34.4436V23.8821H64.0593V34.4436H67.7551Z" fill="white"/>
<path d="M74.3975 20.3596H78.625L82.8525 30.3952V20.3596H86.7246V37.966H82.497L78.2695 27.9304V37.966H74.3975V20.3596Z" fill="white"/>
<path d="M90.165 37.2844C89.7125 36.832 89.4863 36.3032 89.4863 35.6745V22.6482C89.4863 22.0195 89.7125 21.4936 90.165 21.0383C90.6174 20.5858 91.1462 20.3596 91.7749 20.3596H98.1118C98.7405 20.3596 99.2693 20.5858 99.7217 21.0383C100.174 21.4907 100.4 22.0195 100.4 22.6482V26.1677L96.5254 27.0491V23.8821H93.3584V34.4436H96.5254V31.2766L100.4 30.3982V35.6804C100.4 36.3091 100.174 36.8379 99.7217 37.2903C99.2693 37.7427 98.7405 37.969 98.1118 37.969H91.7749C91.1462 37.969 90.6174 37.7398 90.165 37.2874V37.2844Z" fill="white"/>
<path d="M103.168 20.3599H112.325C112.954 20.3599 113.506 20.5861 113.958 21.0385C114.384 21.4909 114.613 22.0197 114.613 22.6484V30.7715C114.613 31.1975 114.487 31.6029 114.261 31.979C114.035 32.358 113.709 32.6341 113.306 32.8104L114.64 37.9663H110.642L109.358 33.0366H107.043V37.9663H103.171V20.3569L103.168 20.3599ZM110.738 29.5141V23.8823H107.043V29.5141H110.738Z" fill="white"/>
<path d="M117.404 20.3599H127.264V23.8794H121.279V27.3989H125.278L124.473 30.9184H121.279V34.4409H127.264V37.9604H117.404V20.3569V20.3599Z" fill="white"/>
<path d="M133.398 23.8791H129.526V20.3596H141.145V23.8791H137.273V37.9631H133.398V23.8791Z" fill="white"/>
<path d="M144.089 37.2844C143.636 36.832 143.407 36.3032 143.407 35.6745V22.6482C143.407 22.0195 143.636 21.4936 144.089 21.0383C144.541 20.5858 145.07 20.3596 145.699 20.3596H152.564C153.193 20.3596 153.745 20.5858 154.201 21.0383C154.627 21.4907 154.856 22.0195 154.856 22.6482V35.6745C154.856 36.3032 154.627 36.832 154.201 37.2844C153.748 37.7369 153.196 37.9631 152.564 37.9631H145.699C145.067 37.9631 144.541 37.7369 144.089 37.2844ZM150.981 34.4436V23.8821H147.282V34.4436H150.981Z" fill="white"/>
<path d="M158.299 37.2847C157.847 36.8323 157.62 36.3035 157.62 35.6748V33.2099L161.492 32.3286V34.4409H164.31V31.4472L159.028 29.2086C158.602 29.0323 158.273 28.7562 158.02 28.3772C157.744 27.9982 157.617 27.5722 157.617 27.1198V22.6426C157.617 22.0139 157.844 21.4851 158.296 21.0326C158.748 20.5802 159.277 20.354 159.906 20.354H165.893C166.522 20.354 167.051 20.5802 167.506 21.0326C167.959 21.4851 168.185 22.0139 168.185 22.6426V25.1074L164.313 25.9858V23.8735H161.495V26.3384L166.778 28.577C167.204 28.7532 167.53 29.0294 167.806 29.4084C168.058 29.7874 168.185 30.2133 168.185 30.6658V35.6689C168.185 36.2976 167.956 36.8264 167.506 37.2788C167.054 37.7312 166.525 37.9575 165.893 37.9575H159.906C159.277 37.9575 158.748 37.7312 158.296 37.2788L158.299 37.2847Z" fill="white"/>
<path d="M22.4713 11.9956L13.8371 3.36133H3.03467V5.1534L9.87686 11.9956H22.4713Z" fill="#999DA3"/>
<path d="M32.4542 13.7203C32.4542 6.46088 26.5579 0.576416 19.2868 0.576416H0V37.9661H35.8474L23.9139 26.0327C28.9023 24.1613 32.4542 19.3579 32.4542 13.7232V13.7203ZM18.2674 24.4492H3.03477V9.44865L10.3617 16.7756C11.6397 18.1417 13.4552 18.9936 15.4706 18.9936C19.3368 18.9936 22.4685 15.859 22.4685 11.9957H9.87403L3.03477 5.15355V3.36148L19.2868 3.37029C24.4486 3.37029 29.4165 8.109 29.4165 13.7761C29.4165 18.6764 26.32 22.4338 22.4685 23.8176C20.5707 24.5667 18.2674 24.4492 18.2674 24.4492Z" fill="white"/>
<path d="M36.5876 2.13355C36.6023 2.13355 36.6229 2.12474 36.6434 2.11299C36.664 2.10124 36.6875 2.08655 36.7081 2.06892C36.7286 2.05129 36.7492 2.02485 36.7639 1.9896C36.7786 1.95435 36.7874 1.91322 36.7874 1.86915V1.63412C36.7874 1.54305 36.7609 1.47254 36.7051 1.41966C36.6493 1.36384 36.5788 1.3374 36.4877 1.3374H35.5417V2.59773H35.8855V2.16587H36.1646L36.4995 2.59773H36.8109V2.42734L36.5612 2.13943L36.5847 2.13355H36.5876ZM36.4466 1.78101C36.4466 1.83683 36.4172 1.86327 36.3643 1.86327H35.8884V1.64881H36.3643C36.4202 1.64881 36.4466 1.67525 36.4466 1.73107V1.78395V1.78101Z" fill="white"/>
<path d="M36.1235 0.576416C35.3538 0.576416 34.731 1.20217 34.731 1.96895C34.731 2.73572 35.3567 3.36148 36.1235 3.36148C36.8903 3.36148 37.516 2.73572 37.516 1.96895C37.516 1.20217 36.8903 0.576416 36.1235 0.576416ZM36.1235 3.17052C35.4595 3.17052 34.9219 2.63289 34.9219 1.96895C34.9219 1.305 35.4595 0.764437 36.1235 0.764437C36.7874 0.764437 37.328 1.30206 37.328 1.96895C37.328 2.63583 36.7904 3.17052 36.1235 3.17052Z" fill="white"/>
</g>
<defs>
<clipPath id="clip0_2001_1053">
<rect width="168.196" height="49" fill="white" transform="translate(0 0.5)"/>
</clipPath>
</defs>
</svg>
